<svg xmlns="http://www.w3.org/2000/svg" viewBox="0 0 800 520" role="img" aria-labelledby="title desc"><title id="title">Cybersecurity illustration</title><desc id="desc">Abstract shield with network paths and security nodes.</desc><rect width="800" height="520" rx="28" fill="#141212"/><g fill="none" stroke="#ff6e61" stroke-width="4" opacity=".45"><path d="M120 140h190l90 75 90-75h190"/><path d="M120 380h190l90-75 90 75h190"/><path d="M205 140v240M595 140v240"/><circle cx="120" cy="140" r="12" fill="#ff5b4d"/><circle cx="680" cy="140" r="12" fill="#ff5b4d"/><circle cx="120" cy="380" r="12" fill="#ff5b4d"/><circle cx="680" cy="380" r="12" fill="#ff5b4d"/></g><path d="M400 88l132 52v106c0 93-63 151-132 185-69-34-132-92-132-185V140z" fill="#1c1718" stroke="#ff7667" stroke-width="6"/><path d="M400 166l26 46 52 11-36 36 8 52-50-24-50 24 8-52-36-36 52-11z" fill="#ff7667" opacity=".9"/><circle cx="400" cy="257" r="70" fill="none" stroke="#ffd2cc" stroke-width="3" opacity=".5"/></svg>